<?xml version="1.0" standalone="no"?>
<!DOCTYPE svg PUBLIC "-//W3C//DTD SVG 20010904//EN"
 "http://www.w3.org/TR/2001/REC-SVG-20010904/DTD/svg10.dtd">
<svg version="1.0" xmlns="http://www.w3.org/2000/svg"
 width="700.000000pt" height="700.000000pt" viewBox="0 0 700.000000 700.000000"
 preserveAspectRatio="xMidYMid meet">
<metadata>
Created by potrace 1.14, written by Peter Selinger 2001-2017
</metadata>
<g transform="translate(0.000000,700.000000) scale(0.100000,-0.100000)"
fill="#000000" stroke="none">
<path d="M1859 6997 c-2 -3 -31 -7 -64 -10 -204 -20 -509 -147 -735 -305 -350
-246 -683 -611 -868 -952 -67 -123 -142 -326 -158 -429 -2 -14 -6 -35 -9 -47
-17 -78 -23 -264 -12 -363 25 -209 107 -438 220 -614 20 -31 37 -60 37 -62 0
-9 94 -130 171 -220 257 -301 658 -596 1129 -830 234 -116 533 -234 760 -302
132 -39 320 -86 325 -82 2 2 -2 31 -8 63 l-12 60 -105 27 c-871 226 -1695 721
-2097 1259 -207 277 -305 548 -306 840 0 421 213 835 650 1261 651 636 1301
759 1919 364 183 -117 451 -371 599 -568 44 -58 83 -106 86 -106 4 -1 21 22
39 49 22 34 29 54 23 63 -205 273 -474 531 -705 675 -157 98 -348 175 -516
209 -70 14 -352 29 -363 20z"/>
<path d="M4977 6994 c-1 -1 -37 -4 -79 -8 -43 -4 -83 -8 -90 -11 -7 -2 -29 -6
-48 -9 -49 -7 -184 -49 -250 -77 -171 -73 -339 -178 -495 -309 -65 -54 -275
-269 -337 -345 -324 -397 -591 -897 -776 -1450 -46 -139 -101 -334 -117 -414
-7 -32 -6 -33 21 -27 16 4 43 9 59 12 17 3 33 8 36 12 3 4 19 57 34 117 118
459 352 983 614 1375 563 842 1229 1174 1895 943 280 -97 530 -266 811 -548
241 -241 365 -405 475 -630 109 -221 149 -380 150 -595 1 -112 -4 -155 -31
-275 -49 -214 -175 -455 -344 -655 -73 -87 -301 -304 -407 -389 -65 -51 -118
-94 -118 -96 0 -2 23 -17 50 -35 l50 -32 38 28 c178 133 422 369 527 509 157
208 253 395 305 587 42 154 50 229 45 388 -4 154 -8 179 -42 310 -83 321 -289
647 -612 970 -432 431 -849 641 -1298 654 -35 1 -65 1 -66 0z"/>
<path d="M3590 5773 c-18 -26 -33 -52 -33 -58 0 -5 24 -50 53 -100 63 -108
204 -395 255 -520 153 -374 274 -799 300 -1060 3 -33 8 -76 10 -95 26 -233 25
-610 0 -850 -12 -108 -13 -150 -5 -150 5 0 32 5 60 11 55 12 55 12 64 109 21
229 27 554 12 695 -29 288 -75 543 -141 786 -20 74 -38 139 -39 144 -6 25 -80
252 -87 265 -4 8 -17 44 -30 80 -35 102 -133 329 -198 459 -58 114 -165 307
-181 324 -4 5 -22 -13 -40 -40z"/>
<path d="M3357 4324 c-1 -1 -58 -5 -126 -8 -69 -4 -127 -9 -130 -10 -3 -2 -33
-6 -66 -10 -65 -7 -79 -9 -200 -31 -110 -21 -106 -20 -235 -50 -265 -63 -598
-178 -890 -307 -159 -71 -521 -266 -527 -284 -3 -10 81 -64 99 -64 6 0 32 12
57 27 104 61 377 202 401 208 3 0 28 11 55 24 162 74 434 173 636 231 128 37
332 87 384 95 11 1 38 6 60 10 245 47 436 57 790 42 153 -6 181 -9 285 -23
115 -16 110 -16 109 8 -1 36 -24 103 -34 104 -26 1 -172 17 -188 20 -10 1 -97
6 -195 9 -97 3 -201 7 -230 8 -30 1 -54 1 -55 1z"/>
<path d="M4346 4184 c17 -90 9 -84 144 -120 934 -254 1763 -773 2141 -1344 62
-93 149 -270 183 -371 14 -41 34 -124 44 -184 66 -393 -63 -784 -397 -1200
-80 -99 -330 -350 -433 -433 -338 -273 -673 -411 -1003 -413 -89 0 -114 2
-228 22 -281 49 -604 242 -879 527 -101 105 -254 288 -278 332 -16 30 -25 25
-60 -30 l-32 -50 66 -84 c334 -428 702 -695 1099 -797 115 -29 161 -34 332
-34 169 1 259 16 424 71 291 97 578 290 876 589 541 543 745 1090 609 1628
-112 441 -469 881 -1009 1245 -348 234 -803 450 -1220 580 -182 56 -293 87
-348 98 l-38 6 7 -38z"/>
<path d="M2775 4046 c-56 -13 -58 -18 -70 -146 -4 -36 -8 -67 -10 -70 -5 -9
-18 -276 -18 -370 0 -146 11 -285 39 -490 48 -351 178 -813 328 -1163 96 -224
168 -364 284 -550 l54 -88 34 50 c19 28 34 55 34 61 0 6 -17 42 -39 78 -153
263 -300 593 -398 892 -24 74 -46 142 -48 150 -2 8 -20 74 -39 145 -41 157
-76 331 -92 460 -3 22 -7 49 -9 60 -10 51 -19 215 -19 365 -1 174 7 290 29
455 3 22 8 70 11 108 7 75 11 72 -71 53z"/>
<path d="M845 3395 c-128 -102 -169 -138 -281 -250 -300 -297 -491 -626 -541
-930 -3 -16 -9 -50 -13 -75 -13 -69 -4 -325 14 -415 54 -268 203 -567 405
-810 104 -126 119 -142 238 -261 316 -316 669 -535 973 -605 149 -35 200 -41
345 -40 319 0 641 126 950 371 110 87 312 293 417 424 291 364 541 827 718
1331 55 156 126 400 145 494 7 32 6 33 -16 28 -13 -3 -41 -9 -62 -12 -41 -8
-44 -10 -51 -47 -18 -99 -121 -419 -196 -608 -53 -132 -163 -381 -180 -405 -4
-5 -30 -54 -59 -107 -259 -489 -605 -897 -951 -1121 -431 -278 -878 -306
-1329 -83 -214 106 -387 234 -606 446 -221 214 -366 403 -487 636 -81 155
-125 293 -153 479 -8 50 -8 225 -1 262 3 16 8 49 11 75 15 126 87 315 178 469
147 249 350 465 672 713 l37 28 -48 34 c-26 19 -50 34 -54 34 -3 0 -37 -25
-75 -55z"/>
<path d="M5630 3397 c-377 -220 -913 -427 -1350 -521 -172 -36 -254 -45 -580
-63 -254 -13 -536 -9 -637 11 -12 3 -47 7 -77 11 l-56 6 10 -26 c6 -15 10 -37
10 -50 0 -37 24 -52 97 -59 37 -4 93 -9 123 -12 196 -19 595 -18 735 1 17 2
68 9 115 15 47 6 103 15 125 20 22 5 56 12 75 15 215 38 555 138 820 242 241
94 595 266 710 343 8 6 30 18 47 27 l33 16 -33 22 c-85 58 -73 57 -167 2z"/>
</g>
</svg>
