<?xml version="1.0" encoding="UTF-8"?>
<svg id="_レイヤー_2" data-name="レイヤー 2" xmlns="http://www.w3.org/2000/svg" viewBox="0 0 94.81 94.81">
  <defs>
    <style>
      .cls-1 {
        fill: #3e3a39;
        stroke-width: 0px;
      }
    </style>
  </defs>
  <g id="p.7_縦横シンボル" data-name="p.7 縦横シンボル">
    <g>
      <g>
        <path class="cls-1" d="M45.82,78.76c-6.82-10.31-9.68-23.66-9.44-31.9.08-2.72.28-4.88.63-6.59.48-.11.94-.2,1.37-.29.04,0,.09-.02.13-.03-.02.18-.04.38-.07.57-.2,1.69-.54,4.52-.6,6.4-.12,3.6.21,6.04.65,8.86.75,4.34,2.07,8.81,3.95,13.32,1.22,2.93,2.63,5.74,4.21,8.35-.28.44-.56.88-.84,1.31Z"/>
        <path class="cls-1" d="M45.82,78.98l-.1-.15c-6.83-10.34-9.69-23.82-9.46-31.97.08-2.73.29-4.89.63-6.61l.02-.08.08-.02c.49-.11.94-.2,1.38-.29l.29-.06-.09.73c-.2,1.69-.54,4.51-.6,6.39-.11,3.59.21,6.03.65,8.84.74,4.32,2.07,8.8,3.94,13.29,1.21,2.92,2.63,5.73,4.21,8.33l.04.06-.04.06c-.28.44-.56.88-.85,1.31l-.1.15ZM37.12,40.37c-.33,1.69-.53,3.82-.61,6.49-.24,8.07,2.58,21.41,9.32,31.68.24-.36.47-.73.7-1.09-1.57-2.6-2.97-5.39-4.18-8.3-1.88-4.51-3.21-9-3.95-13.34-.44-2.83-.77-5.28-.66-8.89.06-1.88.4-4.72.6-6.41l.05-.41c-.41.08-.82.17-1.27.27Z"/>
      </g>
      <g>
        <path class="cls-1" d="M82.32,46.62c-.26-.18-.52-.37-.79-.55-.13-.09-.26-.18-.39-.27,5.28-3.82,9.03-8.15,10.86-12.58,3.13-7.57.73-15.4-7.14-23.24-5.61-5.59-11.24-8.43-16.74-8.43-8.75,0-15.48,7.04-19.58,12.95-.56.81-1.12,1.67-1.66,2.55-1.71,2.77-3.23,5.77-4.52,8.91-1.33,3.23-2.39,6.48-3.16,9.67-.47.08-.95.16-1.45.26,1.65-7.17,4.77-14.63,8.63-20.63.52-.81,1.07-1.61,1.62-2.37C52.2,7.1,59.1.2,68.13.2c5.88,0,11.83,2.97,17.7,8.82,6.35,6.33,9.31,12.76,8.81,19.09-.65,8.22-6.96,14.56-12.31,18.51Z"/>
        <path class="cls-1" d="M82.32,46.77l-.07-.05c-.26-.18-.52-.37-.78-.55-.13-.09-.26-.18-.39-.27l-.14-.1.14-.1c5.26-3.8,9-8.14,10.82-12.53,3.11-7.53.72-15.3-7.11-23.11-5.58-5.57-11.19-8.39-16.66-8.39-8.69,0-15.39,7.01-19.48,12.89-.56.81-1.12,1.66-1.66,2.54-1.7,2.77-3.22,5.76-4.51,8.89-1.33,3.22-2.39,6.47-3.15,9.65l-.02.08h-.08c-.47.09-.96.18-1.44.27l-.18.03.04-.18c1.65-7.17,4.8-14.7,8.65-20.66.52-.81,1.07-1.61,1.63-2.38C52.12,7,59.05.08,68.13.08c5.91,0,11.89,2.98,17.78,8.86,6.38,6.36,9.35,12.81,8.85,19.18-.66,8.32-7.09,14.7-12.36,18.6l-.07.05ZM81.35,45.8c.08.06.17.11.25.17.24.17.48.33.72.5,5.22-3.87,11.55-10.18,12.2-18.37.5-6.3-2.45-12.69-8.78-18.99C79.89,3.28,73.97.32,68.13.32c-8.98,0-15.84,6.87-20.02,12.63-.55.76-1.1,1.56-1.62,2.37-3.8,5.89-6.92,13.32-8.58,20.41.4-.08.8-.15,1.19-.21.76-3.17,1.82-6.41,3.15-9.61,1.3-3.14,2.82-6.14,4.53-8.92.54-.88,1.1-1.74,1.67-2.55,4.12-5.93,10.88-13,19.68-13,5.54,0,11.2,2.85,16.83,8.46,7.91,7.89,10.32,15.75,7.16,23.37-1.82,4.39-5.54,8.72-10.76,12.53Z"/>
      </g>
      <g>
        <path class="cls-1" d="M17.38,46.56c-.43-.27-.85-.54-1.26-.81,9.1-5.62,20.98-9.36,29.9-9.36.76,0,1.49.03,2.18.08h.06c.16,0,.32,0,.48,0,1.81,0,3.78.16,5.87.46.11.48.2.95.29,1.42-.01,0-.02,0-.04,0-.17-.03-.34-.05-.51-.08h-.04c-.15-.03-.29-.05-.44-.07-.17-.02-.34-.05-.51-.07-.16-.02-.31-.04-.47-.06-.16-.02-.32-.04-.48-.05-.17-.02-.33-.03-.49-.05-.15-.01-.3-.03-.45-.04-.18-.01-.35-.03-.53-.04,0,0-.3-.02-.4-.03-.2-.01-.4-.02-.59-.03,0,0-.25-.01-.32-.01-.3,0-.6-.01-.89-.01-.18,0-.36,0-.54,0-.7-.06-1.44-.09-2.19-.09-2.42,0-5.11.29-8,.85-5.58,1.09-11.56,3.17-16.84,5.86-1.31.67-2.59,1.37-3.8,2.1Z"/>
        <path class="cls-1" d="M17.38,46.7l-.06-.04c-.43-.27-.85-.54-1.27-.82l-.16-.1.16-.1c9.08-5.61,21.12-9.37,29.96-9.37.76,0,1.5.03,2.19.08h.06c.15,0,.31,0,.48,0,1.82,0,3.8.16,5.88.46h.08s.02.09.02.09c.11.48.21.96.29,1.42l.03.17-.17-.03-.02-.11h0s-.02.11-.02.11c-.17-.03-.34-.05-.51-.08h-.07c-.14-.03-.27-.05-.41-.07-.17-.02-.34-.04-.51-.07-.16-.02-.31-.04-.47-.06-.16-.02-.32-.04-.48-.05-.16-.02-.33-.03-.49-.05-.15-.01-.3-.03-.44-.04-.18-.01-.35-.03-.52-.04,0,0-.3-.02-.4-.03-.2-.01-.39-.02-.59-.03,0,0-.25-.01-.32-.01-.49-.01-.96-.02-1.43,0-.71-.06-1.44-.09-2.19-.09-2.41,0-5.09.29-7.97.85-5.57,1.09-11.54,3.17-16.81,5.85-1.31.66-2.58,1.37-3.79,2.1l-.06.04ZM16.34,45.75c.34.23.69.45,1.04.67,1.2-.72,2.46-1.41,3.75-2.07,5.29-2.69,11.28-4.77,16.87-5.87,3.81-.74,7.27-1.01,10.22-.77.44-.01.93,0,1.43,0,.06,0,.32.01.32.01.2,0,.39.02.59.03.1,0,.4.03.4.03.17.01.35.02.53.04.15.01.3.02.45.04.16.01.33.03.49.05.16.02.32.03.48.05.16.02.31.04.47.06.17.02.34.04.52.07.14.02.28.04.41.06h.07c.13.03.25.05.38.07-.07-.38-.16-.77-.24-1.17-2.23-.32-4.33-.47-6.24-.44h-.07c-.7-.06-1.43-.08-2.18-.08-8.75,0-20.65,3.71-29.68,9.24Z"/>
      </g>
      <g>
        <path class="cls-1" d="M68.08,94.69c-8.85,0-15.65-6.63-19.89-12.37.28-.39.55-.79.83-1.2,4.16,5.75,10.69,12.21,19.06,12.21,5.51,0,11.15-2.85,16.75-8.47,7.84-7.86,10.23-15.69,7.09-23.26-2.63-6.35-9.15-12.42-18.36-17.09-4.52-2.3-9.48-4.12-14.37-5.3-.08-.48-.16-.97-.26-1.46,14.79,3.4,31.28,13.02,34.93,25.28,2.24,7.52-.48,15.19-8.07,22.8-5.87,5.88-11.83,8.87-17.71,8.87,0,0,0,0,0,0Z"/>
        <path class="cls-1" d="M68.08,94.81h0c-8.94,0-15.8-6.75-19.98-12.42l-.05-.07.05-.07c.28-.39.55-.79.82-1.19l.1-.14.1.14c4.01,5.55,10.56,12.16,18.96,12.16,5.48,0,11.08-2.84,16.67-8.43,7.81-7.83,10.18-15.61,7.06-23.13-2.62-6.32-9.12-12.37-18.3-17.03-4.5-2.29-9.46-4.12-14.34-5.29l-.08-.02v-.08c-.09-.47-.18-.96-.27-1.46l-.03-.18.18.04c7.73,1.78,15.43,5.09,21.68,9.33,7.02,4.77,11.63,10.31,13.33,16.03,2.25,7.56-.48,15.27-8.1,22.92-5.89,5.91-11.88,8.9-17.8,8.9ZM48.34,82.32c4.15,5.61,10.93,12.25,19.74,12.25h0c5.85,0,11.78-2.97,17.63-8.83,7.56-7.58,10.26-15.21,8.04-22.68-1.68-5.67-6.26-11.16-13.24-15.9-6.18-4.19-13.78-7.48-21.42-9.26.08.41.15.81.21,1.21,4.87,1.18,9.82,3.01,14.32,5.29,9.23,4.69,15.77,10.78,18.41,17.15,3.16,7.62.77,15.49-7.11,23.39-5.63,5.64-11.29,8.5-16.84,8.5-8.44,0-15-6.56-19.06-12.12-.23.33-.45.66-.68.99Z"/>
      </g>
      <g>
        <path class="cls-1" d="M35.88,57.06C21.1,53.66,4.6,44.04.95,31.78c-2.24-7.52.48-15.19,8.07-22.8C14.89,3.1,20.85.12,26.73.12c8.85,0,15.65,6.63,19.89,12.37-.28.39-.55.79-.83,1.2C41.63,7.93,35.1,1.48,26.74,1.48c-5.51,0-11.15,2.85-16.75,8.47C2.14,17.81-.24,25.64,2.9,33.21c2.63,6.35,9.15,12.42,18.36,17.09,4.52,2.3,9.48,4.12,14.37,5.3.08.48.16.97.26,1.46Z"/>
        <path class="cls-1" d="M36.04,57.22l-.18-.04c-7.73-1.78-15.43-5.09-21.68-9.33C7.15,43.08,2.54,37.54.84,31.82c-2.25-7.56.48-15.27,8.1-22.92C14.83,2.99,20.82,0,26.73,0c8.94,0,15.8,6.75,19.98,12.42l.05.07-.05.07c-.28.39-.55.79-.82,1.19l-.1.14-.1-.14c-4.01-5.55-10.56-12.16-18.96-12.16-5.48,0-11.08,2.84-16.67,8.43C2.26,17.86-.11,25.64,3.01,33.16c2.62,6.32,9.12,12.37,18.3,17.03,4.5,2.29,9.46,4.12,14.34,5.29l.08.02v.08c.09.47.18.97.27,1.46l.03.18ZM26.73.24C20.88.24,14.95,3.21,9.11,9.07,1.55,16.65-1.15,24.28,1.07,31.75c1.68,5.67,6.26,11.16,13.24,15.9,6.18,4.19,13.78,7.48,21.42,9.26-.08-.41-.15-.81-.21-1.21-4.87-1.18-9.82-3.01-14.32-5.29-9.23-4.69-15.77-10.78-18.41-17.15-3.16-7.62-.77-15.49,7.11-23.39C15.53,4.22,21.19,1.36,26.74,1.36c8.44,0,15,6.56,19.06,12.12.22-.33.45-.66.68-.99C42.32,6.88,35.54.24,26.73.24Z"/>
      </g>
      <g>
        <path class="cls-1" d="M48.8,58.42c-.76,0-1.49-.03-2.18-.08h-.06c-.16,0-.32,0-.48,0-1.81,0-3.78-.16-5.87-.46-.11-.48-.2-.95-.29-1.42.01,0,.02,0,.04,0,.16.02.31.05.46.07l.16.02c.12.02.24.04.36.05.17.02.34.04.51.07.16.02.31.04.47.06.16.02.32.04.48.05.17.02.33.03.49.05.15.01.3.03.44.04.18.01.35.03.53.04h.07c.11.01.22.02.33.03.2.01.4.02.59.03,0,0,.25.01.32.01.3,0,.6.01.89.01.19,0,.38,0,.57,0h0c1.38-.05,7.62-.27,10.15-.77,5.58-1.09,11.56-3.17,16.84-5.86,1.31-.67,2.59-1.37,3.8-2.1.43.27.85.54,1.27.81-9.1,5.62-20.98,9.35-29.9,9.35h0Z"/>
        <path class="cls-1" d="M48.8,58.54h0c-.76,0-1.5-.03-2.19-.08h-.06c-.15,0-.31,0-.48,0-1.82,0-3.8-.16-5.88-.46h-.08s-.02-.09-.02-.09c-.1-.48-.2-.95-.29-1.42l-.03-.17.21.03c.16.02.31.05.46.07l.16.02c.12.02.24.04.36.05.17.02.34.04.51.07.16.02.31.04.47.06.16.02.32.04.48.05.17.02.33.03.49.05.15.01.3.03.44.04.18.01.35.03.53.04h.07c.11.01.22.02.33.03.2.01.4.02.59.03,0,0,.25.01.31.01.47.01.92.02,1.36,0h.1c1.25-.05,7.59-.27,10.13-.76,5.57-1.09,11.54-3.17,16.81-5.85,1.3-.66,2.58-1.37,3.79-2.1l.06-.04.06.04c.43.27.86.54,1.27.82l.16.1-.16.1c-9.08,5.61-21.12,9.37-29.96,9.37ZM46.55,58.22h.07c.7.06,1.43.08,2.18.08h0c8.75,0,20.65-3.71,29.68-9.24-.34-.22-.69-.45-1.04-.67-1.2.72-2.46,1.42-3.75,2.07-5.29,2.69-11.28,4.77-16.87,5.87-2.49.49-8.58.71-10.06.76h0s-.11.01-.11.01c-.48,0-.97,0-1.47,0-.06,0-.32-.01-.32-.01-.2,0-.39-.02-.59-.03-.11,0-.22-.01-.33-.02h-.07c-.18-.02-.35-.03-.53-.04-.15-.01-.3-.02-.45-.04-.16-.01-.33-.03-.5-.05-.16-.02-.32-.03-.48-.05-.16-.02-.31-.04-.47-.06-.17-.02-.34-.04-.51-.07-.12-.02-.24-.03-.37-.05l-.16-.02c-.11-.02-.22-.03-.33-.05.08.39.16.78.24,1.17,2.23.32,4.33.47,6.24.44Z"/>
      </g>
      <g>
        <path class="cls-1" d="M56.5,54.87c.14-1.51.4-4.59.46-6.66.12-3.67-.52-8.89-.55-9.11v-.03c-.75-4.33-2.08-8.8-3.95-13.31-1.22-2.93-2.63-5.74-4.21-8.35.27-.43.55-.86.82-1.28,6.71,10.89,9.51,24.17,9.26,32.1-.05,1.71-.13,4.01-.46,6.36-.41.09-.93.19-1.38.27Z"/>
        <path class="cls-1" d="M56.37,55.01v-.16c.16-1.61.41-4.62.48-6.65.12-3.65-.52-8.87-.55-9.09v-.03c-.75-4.31-2.07-8.78-3.94-13.28-1.21-2.92-2.63-5.73-4.21-8.33l-.04-.06.04-.06c.27-.43.55-.86.83-1.28l.1-.16.1.16c6.72,10.92,9.52,24.33,9.28,32.17-.05,1.69-.13,4.01-.46,6.37v.08s-.09.02-.09.02c-.41.09-.94.19-1.38.28l-.16.03ZM48.39,17.41c1.57,2.6,2.97,5.4,4.18,8.3,1.88,4.51,3.21,9,3.95,13.33v.04c.03.22.67,5.47.55,9.13-.06,1.97-.3,4.86-.45,6.51.38-.07.79-.16,1.14-.23.32-2.32.39-4.6.45-6.26.24-7.77-2.52-21.03-9.14-31.87-.23.35-.46.7-.68,1.06Z"/>
      </g>
      <g>
        <path class="cls-1" d="M26.69,94.61c-5.88,0-11.83-2.97-17.7-8.82C2.64,79.45-.33,73.03.17,66.7c.65-8.22,6.96-14.56,12.31-18.51.26.18.52.37.79.55.13.09.26.18.39.27-5.28,3.82-9.03,8.15-10.86,12.58-3.13,7.58-.73,15.4,7.14,23.24,5.61,5.59,11.24,8.43,16.74,8.43,8.75,0,15.48-7.04,19.58-12.95.57-.82,1.13-1.67,1.66-2.55,1.71-2.77,3.23-5.77,4.52-8.91,1.33-3.23,2.39-6.48,3.16-9.67.47-.08.96-.16,1.45-.26-1.65,7.17-4.77,14.63-8.63,20.62-.52.81-1.07,1.61-1.62,2.37-4.2,5.79-11.09,12.68-20.12,12.68Z"/>
        <path class="cls-1" d="M26.69,94.73c-5.91,0-11.89-2.98-17.78-8.86C2.53,79.51-.45,73.06.05,66.69c.66-8.32,7.09-14.7,12.36-18.6l.07-.05.07.05c.26.18.52.37.78.55.13.09.26.18.39.27l.14.1-.14.1c-5.26,3.8-9,8.13-10.82,12.53-3.11,7.53-.72,15.3,7.11,23.11,5.58,5.57,11.19,8.39,16.66,8.39,8.69,0,15.39-7.01,19.48-12.89.57-.81,1.12-1.67,1.66-2.54,1.7-2.77,3.22-5.76,4.51-8.89,1.33-3.22,2.39-6.47,3.15-9.65l.02-.08h.08c.47-.09.95-.18,1.44-.27l.18-.03-.04.18c-1.65,7.17-4.8,14.7-8.65,20.66-.52.81-1.07,1.61-1.63,2.38-4.21,5.81-11.14,12.73-20.21,12.73ZM12.49,48.34C7.27,52.21.94,58.52.29,66.71c-.5,6.3,2.45,12.69,8.78,18.99,5.85,5.83,11.77,8.79,17.61,8.79,8.97,0,15.84-6.87,20.02-12.63.55-.76,1.1-1.56,1.62-2.37,3.8-5.89,6.92-13.32,8.58-20.41-.4.08-.8.15-1.19.21-.77,3.17-1.82,6.41-3.15,9.61-1.3,3.14-2.82,6.14-4.53,8.92-.54.87-1.1,1.73-1.67,2.55-4.12,5.93-10.88,13-19.68,13-5.54,0-11.2-2.85-16.83-8.46-7.91-7.89-10.32-15.75-7.16-23.37,1.82-4.39,5.54-8.72,10.76-12.53-.08-.06-.17-.11-.25-.17-.24-.17-.48-.33-.72-.5Z"/>
      </g>
    </g>
  </g>
</svg>